<svg xmlns="http://www.w3.org/2000/svg" width="147.502" height="31.038"><defs><style>.cls-2{fill-rule:evenodd;fill:#0276bb}</style></defs><g id="Symbol_9_1" data-name="Symbol 9 – 1" transform="translate(-27 -29)"><path id="Path_19" d="M90.01 55.34a3.073 3.073 0 00.2 1.2 1.682 1.682 0 00.582.737 2.332 2.332 0 00.927.375 6.651 6.651 0 001.233.1h3.3A4.167 4.167 0 0097.5 57.6a1.8 1.8 0 00.746-.427 1.411 1.411 0 00.362-.638 3.044 3.044 0 00.095-.789v-.625h-2.046a1.632 1.632 0 01-.06.491.528.528 0 01-.2.276.784.784 0 01-.371.125 5.273 5.273 0 01-.569.026h-2.175a2.037 2.037 0 01-.591-.073.726.726 0 01-.358-.228.914.914 0 01-.177-.414 3.621 3.621 0 01-.047-.616v-.72a2.712 2.712 0 01.052-.556.956.956 0 01.19-.418.835.835 0 01.388-.267 1.964 1.964 0 01.655-.091h2.229a1.587 1.587 0 01.711.129.5.5 0 01.25.487v.185h2.048a5.855 5.855 0 00-.091-1.19 1.38 1.38 0 00-.444-.776 2.133 2.133 0 00-1-.422 9.351 9.351 0 00-1.742-.129h-2.401a6.618 6.618 0 00-1.233.1 2.332 2.332 0 00-.927.375 1.7 1.7 0 00-.582.741 3.079 3.079 0 00-.2 1.2v1.984zm9.786 0a3.073 3.073 0 00.2 1.2 1.713 1.713 0 00.582.737 2.332 2.332 0 00.927.375 6.651 6.651 0 001.233.1h3.281a6.618 6.618 0 001.233-.1 2.271 2.271 0 00.927-.375 1.714 1.714 0 00.582-.737 3.073 3.073 0 00.2-1.2v-1.992a3.079 3.079 0 00-.2-1.2 1.7 1.7 0 00-.582-.741 2.332 2.332 0 00-.927-.375 6.651 6.651 0 00-1.233-.1h-3.281a6.618 6.618 0 00-1.233.1 2.332 2.332 0 00-.927.375 1.7 1.7 0 00-.582.741 3.079 3.079 0 00-.2 1.2v1.992zm2.1-1.354a2.712 2.712 0 01.052-.556.956.956 0 01.19-.418.835.835 0 01.388-.267 1.964 1.964 0 01.655-.091h2.4a1.964 1.964 0 01.655.091.882.882 0 01.388.267 1.033 1.033 0 01.19.418 2.712 2.712 0 01.052.556v.72a3.585 3.585 0 01-.047.616.869.869 0 01-.177.414.746.746 0 01-.358.228 2.037 2.037 0 01-.591.073h-2.617a2.037 2.037 0 01-.591-.073.726.726 0 01-.358-.228.914.914 0 01-.177-.414 3.622 3.622 0 01-.047-.616v-.72zm8.294 3.694h2.048v-4.845h.017l3.841 4.845h3.169v-6.668h-2.048v4.845h-.017l-3.841-4.845h-3.169v6.669zm10.342-1.72a2.3 2.3 0 00.147.892 1.17 1.17 0 00.461.547 2.086 2.086 0 00.806.276 7.836 7.836 0 001.194.078h2.479a15.745 15.745 0 001.668-.073 2.521 2.521 0 001.013-.3 1.17 1.17 0 00.509-.638 3.513 3.513 0 00.138-1.082 3.293 3.293 0 00-.164-1.151 1.231 1.231 0 00-.6-.647 3.168 3.168 0 00-1.2-.276 26.693 26.693 0 00-1.953-.056c-.547 0-.983 0-1.306-.009a4.094 4.094 0 01-.737-.065.5.5 0 01-.328-.177.677.677 0 01-.073-.341.42.42 0 01.211-.392 1.112 1.112 0 01.56-.125h2.268a2.662 2.662 0 01.552.043.618.618 0 01.3.125.362.362 0 01.121.211 1.662 1.662 0 01.022.315h2.048v-.211a4.163 4.163 0 00-.073-.8 1.161 1.161 0 00-.336-.621 1.711 1.711 0 00-.776-.405 5.423 5.423 0 00-1.4-.142h-2.858a5.362 5.362 0 00-1.513.168 1.771 1.771 0 00-.806.453 1.239 1.239 0 00-.319.677 5.752 5.752 0 00-.056.845 4.3 4.3 0 00.1 1.009.99.99 0 00.457.612 2.61 2.61 0 001.039.306 15.76 15.76 0 001.832.082c.655 0 1.177 0 1.561.013a4.8 4.8 0 01.867.078.566.566 0 01.366.185.632.632 0 01.078.341.574.574 0 01-.073.306.515.515 0 01-.2.172.813.813 0 01-.28.073q-.155.013-.323.013h-2.5a3.467 3.467 0 01-.388-.017.583.583 0 01-.276-.095.449.449 0 01-.164-.233 1.207 1.207 0 01-.056-.418h-2.048v.453zm9.187-3.294h2.875v5.014h2.048v-5.013h2.875v-1.66h-7.8v1.66zm10.734 0h3.2a1.5 1.5 0 01.716.129c.151.086.224.276.224.573v.22a.714.714 0 01-.172.53.821.821 0 01-.586.172h-3.384v-1.623zm-2.043 5.014h2.048v-1.732h3.216a.867.867 0 01.66.2 1.109 1.109 0 01.181.729v.8h2.048v-1.13a2.248 2.248 0 00-.086-.677 1.076 1.076 0 00-.241-.427.989.989 0 00-.354-.246 2.637 2.637 0 00-.431-.125v-.017a1.946 1.946 0 00.578-.224 1.069 1.069 0 00.349-.345 1.323 1.323 0 00.168-.47 3.593 3.593 0 00.047-.6v-.422a3.366 3.366 0 00-.091-.815 1.4 1.4 0 00-.931-1.022 2.864 2.864 0 00-.979-.142h-6.173v6.665zm9.557-2.375a2.387 2.387 0 00.66 1.854 3.021 3.021 0 002.078.6h2.931a3.021 3.021 0 002.078-.6 2.387 2.387 0 00.66-1.854v-4.293h-2.048v3.85a1.3 1.3 0 01-.259.91 1.184 1.184 0 01-.884.272h-2.026a1.184 1.184 0 01-.884-.272 1.3 1.3 0 01-.259-.91v-3.85h-2.048v4.294zm9.635.034a3.073 3.073 0 00.2 1.2 1.713 1.713 0 00.582.737 2.332 2.332 0 00.927.375 6.651 6.651 0 001.233.1h3.3a4.167 4.167 0 001.254-.155 1.8 1.8 0 00.746-.427 1.411 1.411 0 00.362-.638 3.04 3.04 0 00.1-.789v-.625h-2.048a1.631 1.631 0 01-.06.491.528.528 0 01-.2.276.784.784 0 01-.371.125 5.3 5.3 0 01-.573.026h-2.186a2.037 2.037 0 01-.591-.073.726.726 0 01-.358-.228.914.914 0 01-.177-.414 3.621 3.621 0 01-.047-.616v-.72a2.712 2.712 0 01.052-.556 1.007 1.007 0 01.19-.418.835.835 0 01.388-.267 1.947 1.947 0 01.655-.091h2.22a1.587 1.587 0 01.711.129.5.5 0 01.25.487v.185h2.048a5.856 5.856 0 00-.091-1.19 1.379 1.379 0 00-.444-.776 2.133 2.133 0 00-1-.422 9.351 9.351 0 00-1.742-.129h-2.405a6.618 6.618 0 00-1.233.1 2.332 2.332 0 00-.927.375 1.7 1.7 0 00-.582.741 3.079 3.079 0 00-.2 1.2v1.988zm9.45-2.673h2.875v5.014h2.048v-5.013h2.875v-1.66h-7.794v1.66zm8.8 5.014h2.048v-6.668h-2.048v6.669zm3.393-2.341a3.073 3.073 0 00.2 1.2 1.714 1.714 0 00.582.737 2.332 2.332 0 00.927.375 6.651 6.651 0 001.233.1h3.281a6.618 6.618 0 001.233-.1 2.271 2.271 0 00.927-.375 1.713 1.713 0 00.582-.737 3.073 3.073 0 00.2-1.2v-1.991a3.079 3.079 0 00-.2-1.2 1.7 1.7 0 00-.582-.741 2.332 2.332 0 00-.927-.375 6.651 6.651 0 00-1.233-.1h-3.281a6.618 6.618 0 00-1.233.1 2.332 2.332 0 00-.927.375 1.7 1.7 0 00-.582.741 3.079 3.079 0 00-.2 1.2v1.992zm2.1-1.354a2.713 2.713 0 01.052-.556 1.007 1.007 0 01.19-.418.835.835 0 01.388-.267 1.947 1.947 0 01.655-.091h2.4a1.964 1.964 0 01.655.091.882.882 0 01.388.267 1.033 1.033 0 01.19.418 2.713 2.713 0 01.052.556v.72a3.586 3.586 0 01-.047.616.869.869 0 01-.177.414.746.746 0 01-.358.228 2.037 2.037 0 01-.591.073h-2.617a2.037 2.037 0 01-.591-.073.726.726 0 01-.358-.228.914.914 0 01-.177-.414 3.623 3.623 0 01-.047-.616v-.72zm8.294 3.694h2.048v-4.844h.017l3.841 4.845h3.169v-6.668h-2.048v4.845h-.017l-3.849-4.845h-3.169z" data-name="Path 19" transform="translate(-24.208 .025)" fill="#a3aaae" fill-rule="evenodd"/><path id="Path_20" d="M89.99 22.351h15.73a10.792 10.792 0 001.97-.168 3.876 3.876 0 001.556-.634 3.054 3.054 0 001.022-1.3 5.422 5.422 0 00.366-2.168 4.634 4.634 0 00-.668-2.737 3.171 3.171 0 00-2.293-1.112v-.065a7.3 7.3 0 00.944-.358 2.052 2.052 0 00.754-.6 2.824 2.824 0 00.5-1.048 6.67 6.67 0 00.177-1.69 4.9 4.9 0 00-.358-1.992 3.028 3.028 0 00-1.09-1.315 4.9 4.9 0 00-1.836-.711 13.649 13.649 0 00-2.569-.211H89.99v16.11zm4.94-6.384h8.855a2.807 2.807 0 011.289.254 1.1 1.1 0 01.491 1.078.938.938 0 01-.491.944 3.023 3.023 0 01-1.289.233H94.93v-2.51zm0-5.854h8.743a1.783 1.783 0 011.069.276 1.151 1.151 0 01.379.992 1.122 1.122 0 01-.379.97 1.774 1.774 0 01-1.069.276H94.93v-2.515zm17.994 12.239h16.041v-4.14h-11.1V6.241h-4.94v16.11zm17.416 0h5.518l1.448-2.85h10.014l1.535 2.85h5.5l-8.859-16.11h-6.432l-8.721 16.11zm11.928-12.373l3.2 6.053h-6.32l3.117-6.053zm12.787 6.721a7.5 7.5 0 00.479 2.906 4.1 4.1 0 001.4 1.78 5.557 5.557 0 002.237.9 16.294 16.294 0 002.983.246h7.967a9.9 9.9 0 003.026-.379 4.444 4.444 0 001.8-1.035 3.4 3.4 0 00.879-1.535 7.411 7.411 0 00.233-1.9v-1.518h-4.94a3.8 3.8 0 01-.147 1.19 1.264 1.264 0 01-.479.668 2 2 0 01-.892.3 12.282 12.282 0 01-1.379.065h-5.272a4.836 4.836 0 01-1.423-.177 1.824 1.824 0 01-.866-.556 2.128 2.128 0 01-.422-1 8.7 8.7 0 01-.112-1.492v-1.736a6.631 6.631 0 01.121-1.345 2.4 2.4 0 01.457-1.013 2.118 2.118 0 01.935-.647 4.677 4.677 0 011.578-.224h5.382a3.79 3.79 0 011.711.31 1.2 1.2 0 01.6 1.181v.444h4.94a13.405 13.405 0 00-.224-2.871 3.3 3.3 0 00-1.069-1.871 5.149 5.149 0 00-2.4-1.022 22.7 22.7 0 00-4.207-.31h-5.807a16.328 16.328 0 00-2.983.246 5.557 5.557 0 00-2.237.9 4.074 4.074 0 00-1.4 1.795 7.491 7.491 0 00-.479 2.893V16.7zm23.292 5.652h4.94v-6.1H193.7v6.1h4.94V6.241h-4.94v5.742h-10.413V6.241h-4.94z" class="cls-2" data-name="Path 20" transform="translate(-24.196 25.552)"/><path id="Path_21" d="M0 0h29.146l-5.38 5.38H5.38v20.279h18.386l5.38 5.38H0V0zm25.659 23.766l5.38 5.38V1.892l-5.38 5.38v6.708l-2.268 1.673 2.268 1.673v6.44zM9.7 9.7v3.66h11.639V9.7zm11.639 7.979H9.7v3.66h11.639z" class="cls-2" data-name="Path 21" transform="translate(27 29)"/></g></svg>